<?xml version="1.0" standalone="no"?><!DOCTYPE svg PUBLIC "-//W3C//DTD SVG 1.1//EN" "http://www.w3.org/Graphics/SVG/1.1/DTD/svg11.dtd"><svg t="1692452110929" class="icon" viewBox="0 0 1024 1024" version="1.1" xmlns="http://www.w3.org/2000/svg" p-id="1512" xmlns:xlink="http://www.w3.org/1999/xlink" width="200" height="200"><path d="M925.9 392c0-124.9-101.6-226.5-226.5-226.5-77.8 0-146.5 39.4-187.3 99.4-40.8-59.9-109.5-99.4-187.3-99.4-125-0.1-226.7 101.6-226.7 226.5 0 53.6 18.8 102.9 50.1 141.8C133 568.6 125 605.7 125 643c0 176.2 173.6 319.6 386.9 319.6S898.8 819.2 898.8 643c0-37.7-7.9-74.3-23.2-109.1 31.4-39 50.3-88.3 50.3-141.9zM699.3 243.8c81.7 0 148.2 66.5 148.2 148.2S781 540.1 699.3 540.1 551.2 473.7 551.2 392s66.4-148.2 148.1-148.2z m-374.6 0c81.7 0 148.2 66.5 148.2 148.2s-66.5 148.2-148.2 148.2S176.5 473.7 176.5 392 243 243.8 324.7 243.8z m-43.8 558.4H743c-56.5 50.1-139 81.9-231 81.9s-174.5-31.8-231.1-81.9z m521.4-78.3H221.7c-11.6-25.3-18.3-52.5-18.3-81 0-18.7 2.8-37.1 8.2-54.9 33.3 19.3 71.9 30.5 113.1 30.5 77.8 0 146.5-39.4 187.3-99.4 40.8 59.9 109.5 99.4 187.3 99.4 41.1 0 79.6-11.2 112.9-30.4 5.4 17.9 8.3 36.2 8.3 54.8 0.1 28.4-6.6 55.6-18.2 81z" fill="#707070" p-id="1513"></path><path d="M317.7 394.2m-58.8 0a58.8 58.8 0 1 0 117.6 0 58.8 58.8 0 1 0-117.6 0Z" fill="#707070" p-id="1514"></path><path d="M694.8 394.2m-58.8 0a58.8 58.8 0 1 0 117.6 0 58.8 58.8 0 1 0-117.6 0Z" fill="#707070" p-id="1515"></path></svg>